<mxfile host="app.diagrams.net" modified="2023-03-18T11:10:38.238Z" agent="5.0 (Windows NT 10.0; Win64; x64) AppleWebKit/537.36 (KHTML, like Gecko) Chrome/111.0.0.0 Safari/537.36 Edg/111.0.1661.41" etag="aL8bO-Ed-xlwE_1_XPIz" version="21.0.6" type="github">
  <diagram name="第 1 页" id="Km4EUPpW3Bt0Ke5mqbw6">
    <mxGraphModel dx="936" dy="494" grid="0" gridSize="10" guides="1" tooltips="1" connect="1" arrows="1" fold="1" page="1" pageScale="1" pageWidth="2339" pageHeight="3300" math="0" shadow="0">
      <root>
        <mxCell id="0" />
        <mxCell id="1" parent="0" />
        <mxCell id="mrWp1UJhDtjCSpIHL-74-4" style="edgeStyle=orthogonalEdgeStyle;rounded=0;orthogonalLoop=1;jettySize=auto;html=1;" edge="1" parent="1" source="mrWp1UJhDtjCSpIHL-74-1" target="mrWp1UJhDtjCSpIHL-74-3">
          <mxGeometry relative="1" as="geometry">
            <Array as="points">
              <mxPoint x="351" y="1177" />
              <mxPoint x="351" y="1116" />
            </Array>
          </mxGeometry>
        </mxCell>
        <mxCell id="mrWp1UJhDtjCSpIHL-74-27" style="edgeStyle=orthogonalEdgeStyle;rounded=0;orthogonalLoop=1;jettySize=auto;html=1;entryX=0;entryY=0.5;entryDx=0;entryDy=0;" edge="1" parent="1" source="mrWp1UJhDtjCSpIHL-74-1" target="mrWp1UJhDtjCSpIHL-74-24">
          <mxGeometry relative="1" as="geometry" />
        </mxCell>
        <mxCell id="mrWp1UJhDtjCSpIHL-74-45" style="edgeStyle=orthogonalEdgeStyle;rounded=0;orthogonalLoop=1;jettySize=auto;html=1;" edge="1" parent="1" source="mrWp1UJhDtjCSpIHL-74-1" target="mrWp1UJhDtjCSpIHL-74-42">
          <mxGeometry relative="1" as="geometry">
            <Array as="points">
              <mxPoint x="351" y="1191" />
              <mxPoint x="351" y="1257" />
            </Array>
          </mxGeometry>
        </mxCell>
        <mxCell id="mrWp1UJhDtjCSpIHL-74-52" style="edgeStyle=orthogonalEdgeStyle;rounded=0;orthogonalLoop=1;jettySize=auto;html=1;entryX=-0.053;entryY=0.673;entryDx=0;entryDy=0;entryPerimeter=0;" edge="1" parent="1" source="mrWp1UJhDtjCSpIHL-74-1" target="mrWp1UJhDtjCSpIHL-74-50">
          <mxGeometry relative="1" as="geometry">
            <Array as="points">
              <mxPoint x="346" y="1195" />
              <mxPoint x="346" y="1344" />
            </Array>
          </mxGeometry>
        </mxCell>
        <mxCell id="mrWp1UJhDtjCSpIHL-74-68" style="edgeStyle=orthogonalEdgeStyle;rounded=0;orthogonalLoop=1;jettySize=auto;html=1;entryX=0.038;entryY=0.722;entryDx=0;entryDy=0;entryPerimeter=0;" edge="1" parent="1" source="mrWp1UJhDtjCSpIHL-74-1" target="mrWp1UJhDtjCSpIHL-74-57">
          <mxGeometry relative="1" as="geometry">
            <Array as="points">
              <mxPoint x="341" y="1200" />
              <mxPoint x="341" y="1459" />
            </Array>
          </mxGeometry>
        </mxCell>
        <mxCell id="mrWp1UJhDtjCSpIHL-74-1" value="INIT" style="ellipse;whiteSpace=wrap;html=1;aspect=fixed;" vertex="1" parent="1">
          <mxGeometry x="261" y="1153" width="62" height="62" as="geometry" />
        </mxCell>
        <mxCell id="mrWp1UJhDtjCSpIHL-74-2" value="" style="endArrow=classic;html=1;rounded=0;" edge="1" parent="1">
          <mxGeometry width="50" height="50" relative="1" as="geometry">
            <mxPoint x="193" y="1184" as="sourcePoint" />
            <mxPoint x="261" y="1184" as="targetPoint" />
          </mxGeometry>
        </mxCell>
        <mxCell id="mrWp1UJhDtjCSpIHL-74-8" style="edgeStyle=orthogonalEdgeStyle;rounded=0;orthogonalLoop=1;jettySize=auto;html=1;" edge="1" parent="1" source="mrWp1UJhDtjCSpIHL-74-3" target="mrWp1UJhDtjCSpIHL-74-7">
          <mxGeometry relative="1" as="geometry">
            <Array as="points">
              <mxPoint x="442.5" y="1044" />
            </Array>
          </mxGeometry>
        </mxCell>
        <mxCell id="mrWp1UJhDtjCSpIHL-74-11" style="edgeStyle=orthogonalEdgeStyle;rounded=0;orthogonalLoop=1;jettySize=auto;html=1;" edge="1" parent="1" source="mrWp1UJhDtjCSpIHL-74-3" target="mrWp1UJhDtjCSpIHL-74-10">
          <mxGeometry relative="1" as="geometry" />
        </mxCell>
        <mxCell id="mrWp1UJhDtjCSpIHL-74-3" value="ADD 0" style="ellipse;whiteSpace=wrap;html=1;aspect=fixed;" vertex="1" parent="1">
          <mxGeometry x="411.5" y="1085" width="62" height="62" as="geometry" />
        </mxCell>
        <mxCell id="mrWp1UJhDtjCSpIHL-74-6" value="+" style="text;html=1;align=center;verticalAlign=middle;resizable=0;points=[];autosize=1;strokeColor=none;fillColor=none;" vertex="1" parent="1">
          <mxGeometry x="342.5" y="1093" width="25" height="26" as="geometry" />
        </mxCell>
        <mxCell id="mrWp1UJhDtjCSpIHL-74-7" value="ADD 1" style="ellipse;whiteSpace=wrap;html=1;aspect=fixed;" vertex="1" parent="1">
          <mxGeometry x="535.5" y="1008" width="62" height="62" as="geometry" />
        </mxCell>
        <mxCell id="mrWp1UJhDtjCSpIHL-74-9" value="+" style="text;html=1;align=center;verticalAlign=middle;resizable=0;points=[];autosize=1;strokeColor=none;fillColor=none;" vertex="1" parent="1">
          <mxGeometry x="482.5" y="1019" width="25" height="26" as="geometry" />
        </mxCell>
        <mxCell id="mrWp1UJhDtjCSpIHL-74-10" value="ADD 3" style="ellipse;whiteSpace=wrap;html=1;aspect=fixed;" vertex="1" parent="1">
          <mxGeometry x="535.5" y="1085" width="62" height="62" as="geometry" />
        </mxCell>
        <mxCell id="mrWp1UJhDtjCSpIHL-74-12" value="=" style="text;html=1;align=center;verticalAlign=middle;resizable=0;points=[];autosize=1;strokeColor=none;fillColor=none;" vertex="1" parent="1">
          <mxGeometry x="486.5" y="1096" width="25" height="26" as="geometry" />
        </mxCell>
        <mxCell id="mrWp1UJhDtjCSpIHL-74-13" value="ADD 0" style="ellipse;whiteSpace=wrap;html=1;aspect=fixed;" vertex="1" parent="1">
          <mxGeometry x="415" y="1088.5" width="55" height="55" as="geometry" />
        </mxCell>
        <mxCell id="mrWp1UJhDtjCSpIHL-74-14" value="ADD 1" style="ellipse;whiteSpace=wrap;html=1;aspect=fixed;" vertex="1" parent="1">
          <mxGeometry x="539" y="1011.5" width="55" height="55" as="geometry" />
        </mxCell>
        <mxCell id="mrWp1UJhDtjCSpIHL-74-15" value="ADD 2" style="ellipse;whiteSpace=wrap;html=1;aspect=fixed;" vertex="1" parent="1">
          <mxGeometry x="539" y="1088.5" width="55" height="55" as="geometry" />
        </mxCell>
        <mxCell id="mrWp1UJhDtjCSpIHL-74-16" style="edgeStyle=orthogonalEdgeStyle;rounded=0;orthogonalLoop=1;jettySize=auto;html=1;" edge="1" parent="1" source="mrWp1UJhDtjCSpIHL-74-18" target="mrWp1UJhDtjCSpIHL-74-20">
          <mxGeometry relative="1" as="geometry">
            <Array as="points">
              <mxPoint x="619" y="1112" />
            </Array>
          </mxGeometry>
        </mxCell>
        <mxCell id="mrWp1UJhDtjCSpIHL-74-17" style="edgeStyle=orthogonalEdgeStyle;rounded=0;orthogonalLoop=1;jettySize=auto;html=1;" edge="1" parent="1" source="mrWp1UJhDtjCSpIHL-74-18" target="mrWp1UJhDtjCSpIHL-74-22">
          <mxGeometry relative="1" as="geometry" />
        </mxCell>
        <mxCell id="mrWp1UJhDtjCSpIHL-74-31" style="edgeStyle=orthogonalEdgeStyle;rounded=0;orthogonalLoop=1;jettySize=auto;html=1;" edge="1" parent="1" source="mrWp1UJhDtjCSpIHL-74-18" target="mrWp1UJhDtjCSpIHL-74-30">
          <mxGeometry relative="1" as="geometry">
            <Array as="points">
              <mxPoint x="619" y="1295" />
            </Array>
          </mxGeometry>
        </mxCell>
        <mxCell id="mrWp1UJhDtjCSpIHL-74-18" value="ADD 0" style="ellipse;whiteSpace=wrap;html=1;aspect=fixed;" vertex="1" parent="1">
          <mxGeometry x="588" y="1153" width="62" height="62" as="geometry" />
        </mxCell>
        <mxCell id="mrWp1UJhDtjCSpIHL-74-19" value="-" style="text;html=1;align=center;verticalAlign=middle;resizable=0;points=[];autosize=1;strokeColor=none;fillColor=none;" vertex="1" parent="1">
          <mxGeometry x="519" y="1160" width="22" height="26" as="geometry" />
        </mxCell>
        <mxCell id="mrWp1UJhDtjCSpIHL-74-20" value="ADD 1" style="ellipse;whiteSpace=wrap;html=1;aspect=fixed;" vertex="1" parent="1">
          <mxGeometry x="712" y="1076" width="62" height="62" as="geometry" />
        </mxCell>
        <mxCell id="mrWp1UJhDtjCSpIHL-74-21" value="&amp;gt;" style="text;html=1;align=center;verticalAlign=middle;resizable=0;points=[];autosize=1;strokeColor=none;fillColor=none;" vertex="1" parent="1">
          <mxGeometry x="659" y="1087" width="25" height="26" as="geometry" />
        </mxCell>
        <mxCell id="mrWp1UJhDtjCSpIHL-74-22" value="ADD 3" style="ellipse;whiteSpace=wrap;html=1;aspect=fixed;" vertex="1" parent="1">
          <mxGeometry x="712" y="1153" width="62" height="62" as="geometry" />
        </mxCell>
        <mxCell id="mrWp1UJhDtjCSpIHL-74-23" value="=" style="text;html=1;align=center;verticalAlign=middle;resizable=0;points=[];autosize=1;strokeColor=none;fillColor=none;" vertex="1" parent="1">
          <mxGeometry x="663" y="1164" width="25" height="26" as="geometry" />
        </mxCell>
        <mxCell id="mrWp1UJhDtjCSpIHL-74-24" value="SUB 0" style="ellipse;whiteSpace=wrap;html=1;aspect=fixed;" vertex="1" parent="1">
          <mxGeometry x="591.5" y="1156.5" width="55" height="55" as="geometry" />
        </mxCell>
        <mxCell id="mrWp1UJhDtjCSpIHL-74-25" value="SUB 1" style="ellipse;whiteSpace=wrap;html=1;aspect=fixed;" vertex="1" parent="1">
          <mxGeometry x="715.5" y="1079.5" width="55" height="55" as="geometry" />
        </mxCell>
        <mxCell id="mrWp1UJhDtjCSpIHL-74-26" value="SUB 2" style="ellipse;whiteSpace=wrap;html=1;aspect=fixed;" vertex="1" parent="1">
          <mxGeometry x="715.5" y="1156.5" width="55" height="55" as="geometry" />
        </mxCell>
        <mxCell id="mrWp1UJhDtjCSpIHL-74-30" value="ADD 0" style="ellipse;whiteSpace=wrap;html=1;aspect=fixed;" vertex="1" parent="1">
          <mxGeometry x="714" y="1264" width="62" height="62" as="geometry" />
        </mxCell>
        <mxCell id="mrWp1UJhDtjCSpIHL-74-32" value="SUB 3" style="ellipse;whiteSpace=wrap;html=1;aspect=fixed;" vertex="1" parent="1">
          <mxGeometry x="717.5" y="1267.5" width="55" height="55" as="geometry" />
        </mxCell>
        <mxCell id="mrWp1UJhDtjCSpIHL-74-33" value="-" style="text;html=1;align=center;verticalAlign=middle;resizable=0;points=[];autosize=1;strokeColor=none;fillColor=none;" vertex="1" parent="1">
          <mxGeometry x="660.5" y="1274" width="22" height="26" as="geometry" />
        </mxCell>
        <mxCell id="mrWp1UJhDtjCSpIHL-74-35" style="edgeStyle=orthogonalEdgeStyle;rounded=0;orthogonalLoop=1;jettySize=auto;html=1;" edge="1" parent="1" source="mrWp1UJhDtjCSpIHL-74-36" target="mrWp1UJhDtjCSpIHL-74-40">
          <mxGeometry relative="1" as="geometry" />
        </mxCell>
        <mxCell id="mrWp1UJhDtjCSpIHL-74-36" value="ADD 0" style="ellipse;whiteSpace=wrap;html=1;aspect=fixed;" vertex="1" parent="1">
          <mxGeometry x="417" y="1224.5" width="62" height="62" as="geometry" />
        </mxCell>
        <mxCell id="mrWp1UJhDtjCSpIHL-74-37" value="*" style="text;html=1;align=center;verticalAlign=middle;resizable=0;points=[];autosize=1;strokeColor=none;fillColor=none;" vertex="1" parent="1">
          <mxGeometry x="363" y="1238.5" width="23" height="26" as="geometry" />
        </mxCell>
        <mxCell id="mrWp1UJhDtjCSpIHL-74-40" value="ADD 3" style="ellipse;whiteSpace=wrap;html=1;aspect=fixed;" vertex="1" parent="1">
          <mxGeometry x="541" y="1224.5" width="62" height="62" as="geometry" />
        </mxCell>
        <mxCell id="mrWp1UJhDtjCSpIHL-74-41" value="=" style="text;html=1;align=center;verticalAlign=middle;resizable=0;points=[];autosize=1;strokeColor=none;fillColor=none;" vertex="1" parent="1">
          <mxGeometry x="492" y="1235.5" width="25" height="26" as="geometry" />
        </mxCell>
        <mxCell id="mrWp1UJhDtjCSpIHL-74-42" value="MUL 0" style="ellipse;whiteSpace=wrap;html=1;aspect=fixed;" vertex="1" parent="1">
          <mxGeometry x="420.5" y="1228" width="55" height="55" as="geometry" />
        </mxCell>
        <mxCell id="mrWp1UJhDtjCSpIHL-74-44" value="MUL 1" style="ellipse;whiteSpace=wrap;html=1;aspect=fixed;" vertex="1" parent="1">
          <mxGeometry x="544.5" y="1228" width="55" height="55" as="geometry" />
        </mxCell>
        <mxCell id="mrWp1UJhDtjCSpIHL-74-46" style="edgeStyle=orthogonalEdgeStyle;rounded=0;orthogonalLoop=1;jettySize=auto;html=1;" edge="1" parent="1" source="mrWp1UJhDtjCSpIHL-74-47" target="mrWp1UJhDtjCSpIHL-74-48">
          <mxGeometry relative="1" as="geometry" />
        </mxCell>
        <mxCell id="mrWp1UJhDtjCSpIHL-74-47" value="ADD 0" style="ellipse;whiteSpace=wrap;html=1;aspect=fixed;" vertex="1" parent="1">
          <mxGeometry x="417" y="1303.5" width="62" height="62" as="geometry" />
        </mxCell>
        <mxCell id="mrWp1UJhDtjCSpIHL-74-48" value="ADD 3" style="ellipse;whiteSpace=wrap;html=1;aspect=fixed;" vertex="1" parent="1">
          <mxGeometry x="541" y="1303.5" width="62" height="62" as="geometry" />
        </mxCell>
        <mxCell id="mrWp1UJhDtjCSpIHL-74-49" value="=" style="text;html=1;align=center;verticalAlign=middle;resizable=0;points=[];autosize=1;strokeColor=none;fillColor=none;" vertex="1" parent="1">
          <mxGeometry x="492" y="1314.5" width="25" height="26" as="geometry" />
        </mxCell>
        <mxCell id="mrWp1UJhDtjCSpIHL-74-50" value="DIV 0" style="ellipse;whiteSpace=wrap;html=1;aspect=fixed;" vertex="1" parent="1">
          <mxGeometry x="420.5" y="1307" width="55" height="55" as="geometry" />
        </mxCell>
        <mxCell id="mrWp1UJhDtjCSpIHL-74-51" value="DIV 1" style="ellipse;whiteSpace=wrap;html=1;aspect=fixed;" vertex="1" parent="1">
          <mxGeometry x="544.5" y="1307" width="55" height="55" as="geometry" />
        </mxCell>
        <mxCell id="mrWp1UJhDtjCSpIHL-74-53" value="/" style="text;html=1;align=center;verticalAlign=middle;resizable=0;points=[];autosize=1;strokeColor=none;fillColor=none;" vertex="1" parent="1">
          <mxGeometry x="364" y="1321.5" width="21" height="26" as="geometry" />
        </mxCell>
        <mxCell id="mrWp1UJhDtjCSpIHL-74-54" style="edgeStyle=orthogonalEdgeStyle;rounded=0;orthogonalLoop=1;jettySize=auto;html=1;" edge="1" parent="1" source="mrWp1UJhDtjCSpIHL-74-57" target="mrWp1UJhDtjCSpIHL-74-58">
          <mxGeometry relative="1" as="geometry">
            <Array as="points">
              <mxPoint x="622.5" y="1373" />
            </Array>
          </mxGeometry>
        </mxCell>
        <mxCell id="mrWp1UJhDtjCSpIHL-74-55" style="edgeStyle=orthogonalEdgeStyle;rounded=0;orthogonalLoop=1;jettySize=auto;html=1;" edge="1" parent="1" source="mrWp1UJhDtjCSpIHL-74-57" target="mrWp1UJhDtjCSpIHL-74-60">
          <mxGeometry relative="1" as="geometry" />
        </mxCell>
        <mxCell id="mrWp1UJhDtjCSpIHL-74-56" style="edgeStyle=orthogonalEdgeStyle;rounded=0;orthogonalLoop=1;jettySize=auto;html=1;" edge="1" parent="1" source="mrWp1UJhDtjCSpIHL-74-57" target="mrWp1UJhDtjCSpIHL-74-65">
          <mxGeometry relative="1" as="geometry">
            <Array as="points">
              <mxPoint x="622.5" y="1556" />
            </Array>
          </mxGeometry>
        </mxCell>
        <mxCell id="mrWp1UJhDtjCSpIHL-74-57" value="ADD 0" style="ellipse;whiteSpace=wrap;html=1;aspect=fixed;" vertex="1" parent="1">
          <mxGeometry x="591.5" y="1414" width="62" height="62" as="geometry" />
        </mxCell>
        <mxCell id="mrWp1UJhDtjCSpIHL-74-58" value="ADD 1" style="ellipse;whiteSpace=wrap;html=1;aspect=fixed;" vertex="1" parent="1">
          <mxGeometry x="715.5" y="1337" width="62" height="62" as="geometry" />
        </mxCell>
        <mxCell id="mrWp1UJhDtjCSpIHL-74-59" value="&amp;gt;" style="text;html=1;align=center;verticalAlign=middle;resizable=0;points=[];autosize=1;strokeColor=none;fillColor=none;" vertex="1" parent="1">
          <mxGeometry x="662.5" y="1348" width="25" height="26" as="geometry" />
        </mxCell>
        <mxCell id="mrWp1UJhDtjCSpIHL-74-60" value="ADD 3" style="ellipse;whiteSpace=wrap;html=1;aspect=fixed;" vertex="1" parent="1">
          <mxGeometry x="715.5" y="1414" width="62" height="62" as="geometry" />
        </mxCell>
        <mxCell id="mrWp1UJhDtjCSpIHL-74-61" value="=" style="text;html=1;align=center;verticalAlign=middle;resizable=0;points=[];autosize=1;strokeColor=none;fillColor=none;" vertex="1" parent="1">
          <mxGeometry x="666.5" y="1425" width="25" height="26" as="geometry" />
        </mxCell>
        <mxCell id="mrWp1UJhDtjCSpIHL-74-62" value="MOD 0" style="ellipse;whiteSpace=wrap;html=1;aspect=fixed;" vertex="1" parent="1">
          <mxGeometry x="595" y="1417.5" width="55" height="55" as="geometry" />
        </mxCell>
        <mxCell id="mrWp1UJhDtjCSpIHL-74-63" value="MOD 1" style="ellipse;whiteSpace=wrap;html=1;aspect=fixed;" vertex="1" parent="1">
          <mxGeometry x="719" y="1340.5" width="55" height="55" as="geometry" />
        </mxCell>
        <mxCell id="mrWp1UJhDtjCSpIHL-74-64" value="MOD 2" style="ellipse;whiteSpace=wrap;html=1;aspect=fixed;" vertex="1" parent="1">
          <mxGeometry x="719" y="1417.5" width="55" height="55" as="geometry" />
        </mxCell>
        <mxCell id="mrWp1UJhDtjCSpIHL-74-65" value="ADD 0" style="ellipse;whiteSpace=wrap;html=1;aspect=fixed;" vertex="1" parent="1">
          <mxGeometry x="717.5" y="1525" width="62" height="62" as="geometry" />
        </mxCell>
        <mxCell id="mrWp1UJhDtjCSpIHL-74-66" value="MOD 3" style="ellipse;whiteSpace=wrap;html=1;aspect=fixed;" vertex="1" parent="1">
          <mxGeometry x="721" y="1528.5" width="55" height="55" as="geometry" />
        </mxCell>
        <mxCell id="mrWp1UJhDtjCSpIHL-74-67" value=":" style="text;html=1;align=center;verticalAlign=middle;resizable=0;points=[];autosize=1;strokeColor=none;fillColor=none;" vertex="1" parent="1">
          <mxGeometry x="665" y="1535" width="21" height="26" as="geometry" />
        </mxCell>
        <mxCell id="mrWp1UJhDtjCSpIHL-74-69" value="%" style="text;html=1;align=center;verticalAlign=middle;resizable=0;points=[];autosize=1;strokeColor=none;fillColor=none;" vertex="1" parent="1">
          <mxGeometry x="363.5" y="1429" width="29" height="26" as="geometry" />
        </mxCell>
      </root>
    </mxGraphModel>
  </diagram>
</mxfile>
